<svg xmlns="http://www.w3.org/2000/svg" version="1.1" xmlns:xlink="http://www.w3.org/1999/xlink" xmlns:svgjs="http://svgjs.dev/svgjs" width="1000" height="2500" preserveAspectRatio="none" viewBox="0 0 1000 2500"><g mask="url(&quot;#SvgjsMask1032&quot;)" fill="none"><rect width="1000" height="2500" x="0" y="0" fill="rgba(243, 243, 243, 1)"></rect><path d="M0,1117.493C211.885,1178.483,478.881,1143.79,635.022,988.114C791.853,831.75,693.95,559.521,768.72,351.063C834.347,168.096,1070.588,42.452,1043.239,-149.995C1015.896,-342.4,758.781,-400.753,640.018,-554.579C510.684,-722.097,524.69,-1036.372,319.349,-1087.604C111.055,-1139.573,-21.409,-834.791,-226.305,-770.723C-425.356,-708.483,-666.817,-845.458,-837.651,-725.829C-1012.004,-603.736,-1062.57,-367.658,-1100.887,-158.284C-1140.286,56.999,-1194.939,312.111,-1058.993,483.626C-921.125,657.566,-627.2,565.616,-436.757,679.607C-256.211,787.674,-202.207,1059.289,0,1117.493" fill="#c2c2c2"></path><path d="M1000 3252.812C1138.988 3246.352 1248.737 3144.33 1364.012 3066.413 1476.584 2990.324 1604.522 2925.381 1664.674 2803.546 1725.545 2680.254 1739.412 2529.757 1692.842 2400.384 1649.1100000000001 2278.895 1523.616 2214.523 1423.357 2133.159 1340.199 2065.672 1257.519 2002.298 1156.949 1965.482 1050.743 1926.603 941.224 1908.5810000000001 828.327 1915.336 690.405 1923.588 514.332 1897.012 433.11400000000003 2008.79 350.23299999999995 2122.858 465.16700000000003 2281.448 459.932 2422.35 455.462 2542.643 378.193 2654.429 404.76199999999994 2771.8360000000002 434.052 2901.2690000000002 510.353 3017.885 613.573 3101.291 723.413 3190.0460000000003 858.935 3259.368 1000 3252.812" fill="#ffffff"></path></g><defs><mask id="SvgjsMask1032"><rect width="1000" height="2500" fill="#ffffff"></rect></mask></defs></svg>