<svg xmlns="http://www.w3.org/2000/svg" version="1.1" xmlns:xlink="http://www.w3.org/1999/xlink" xmlns:svgjs="http://svgjs.dev/svgjs" width="1440" height="1060" preserveAspectRatio="none" viewBox="0 0 1440 1060"><g mask="url(&quot;#SvgjsMask1480&quot;)" fill="none"><rect width="1440" height="1060" x="0" y="0" fill="url(&quot;#SvgjsLinearGradient1481&quot;)"></rect><path d="M1440 0L858.75 0L1440 193.16z" fill="rgba(255, 255, 255, .1)"></path><path d="M858.75 0L1440 193.16L1440 606.61L501.9 0z" fill="rgba(255, 255, 255, .075)"></path><path d="M501.9 0L1440 606.61L1440 709.37L310.02 0z" fill="rgba(255, 255, 255, .05)"></path><path d="M310.02 0L1440 709.37L1440 834.49L286.16999999999996 0z" fill="rgba(255, 255, 255, .025)"></path><path d="M0 1060L517.63 1060L0 605.36z" fill="rgba(0, 0, 0, .1)"></path><path d="M0 605.36L517.63 1060L668.47 1060L0 429.66z" fill="rgba(0, 0, 0, .075)"></path><path d="M0 429.6600000000001L668.47 1060L1130.0900000000001 1060L0 349.57000000000005z" fill="rgba(0, 0, 0, .05)"></path><path d="M0 349.57000000000005L1130.0900000000001 1060L1204.5700000000002 1060L0 330.86000000000007z" fill="rgba(0, 0, 0, .025)"></path></g><defs><mask id="SvgjsMask1480"><rect width="1440" height="1060" fill="#ffffff"></rect></mask><linearGradient x1="93.4%" y1="-8.96%" x2="6.6%" y2="108.96%" gradientUnits="userSpaceOnUse" id="SvgjsLinearGradient1481"><stop stop-color="rgba(248, 248, 248, 1)" offset="1"></stop><stop stop-color="rgba(255, 255, 255, 1)" offset="1"></stop></linearGradient></defs></svg>