<svg xmlns="http://www.w3.org/2000/svg" version="1.1" xmlns:xlink="http://www.w3.org/1999/xlink" xmlns:svgjs="http://svgjs.dev/svgjs" width="2000" height="300" preserveAspectRatio="none" viewBox="0 0 2000 300"><g mask="url(&quot;#SvgjsMask1110&quot;)" fill="none"><rect width="2000" height="300" x="0" y="0" fill="rgba(87, 64, 47, 1)"></rect><path d="M0,758.993C140.773,731.01,274.414,692.264,398.13,619.502C526.157,544.204,637.397,450.634,726.431,331.75C834.148,187.918,991.026,39.054,966.111,-138.906C941.203,-316.817,733.307,-398.295,606.418,-525.464C489.906,-642.232,407.105,-801.61,251.174,-855.419C92.718,-910.099,-88.953,-890.128,-240.06,-817.569C-381.357,-749.721,-457.202,-602.209,-545.644,-472.803C-624.471,-357.465,-694.852,-240.446,-727.352,-104.577C-762.373,41.833,-773.93,191.173,-739.522,337.728C-699.482,508.268,-666.961,714.256,-514.748,800.963C-362.071,887.935,-172.339,793.25,0,758.993" fill="#463326"></path><path d="M2000 1179.268C2162.308 1170.873 2300.476 1065.8980000000001 2425.397 961.931 2538.995 867.387 2646.925 755.0640000000001 2682.158 611.531 2715.065 477.473 2619.782 350.029 2609.388 212.38299999999998 2597.908 60.351 2707.788-112.303 2618.186-235.66099999999994 2529.764-357.395 2343.991-351.821 2193.747-359.84299999999996 2067.178-366.601 1948.789-322.90200000000004 1830.364-277.727 1720.647-235.87400000000002 1622.049-180.36200000000002 1530.49-106.83300000000003 1421.115-18.99599999999998 1296.828 60.851 1245.975 191.588 1189.595 336.533 1183.063 502.61 1236.6390000000001 648.615 1292.117 799.804 1413.116 915.526 1545.35 1007.449 1681.127 1101.835 1834.8609999999999 1187.809 2000 1179.268" fill="#684d38"></path></g><defs><mask id="SvgjsMask1110"><rect width="2000" height="300" fill="#ffffff"></rect></mask></defs></svg>