<svg xmlns="http://www.w3.org/2000/svg" version="1.1" xmlns:xlink="http://www.w3.org/1999/xlink" xmlns:svgjs="http://svgjs.dev/svgjs" width="1991" height="200" preserveAspectRatio="none" viewBox="0 0 1991 200"><g mask="url(&quot;#SvgjsMask1089&quot;)" fill="none"><rect width="1991" height="200" x="0" y="0" fill="rgba(87, 64, 47, 1)"></rect><path d="M0,456.328C112.243,450.604,230.386,566.312,326.311,507.749C421.696,449.516,375.319,294.052,427.596,195.277C484.917,86.971,639.011,29.836,644.046,-92.6C649.014,-213.4,534.165,-302.985,451.723,-391.42C371.903,-477.043,288.854,-568.839,174.944,-595.803C63.167,-622.262,-51.462,-580.31,-157.258,-535.573C-254.053,-494.641,-330.472,-425.07,-404.713,-350.686C-484.297,-270.948,-603.959,-199.636,-604.982,-86.983C-606.021,27.518,-452.832,81.027,-409.595,187.056C-363.304,300.575,-450.867,474.815,-348.426,542.161C-246.41,609.228,-121.929,462.546,0,456.328" fill="#463326"></path><path d="M1991 775.223C2096.844 786.319 2191.163 705.986 2270.824 635.415 2342.66 571.7760000000001 2391.491 487.473 2419.446 395.66499999999996 2444.984 311.795 2441.859 223.45 2422.284 137.99099999999999 2403.873 57.61500000000001 2367.895-17.589 2311.0950000000003-77.36399999999998 2255.935-135.413 2182.987-169.699 2106.719-194.103 2028.914-218.99900000000002 1949.61-218.551 1867.921-219.168 1753.136-220.034 1605.13-286.23 1531.1680000000001-198.447 1456.813-110.19600000000003 1568.258 23.54400000000001 1566.211 138.925 1564.522 234.118 1484.292 326.826 1520.284 414.969 1556.333 503.251 1670.776 522.492 1746.501 580.447 1830.958 645.085 1885.227 764.134 1991 775.223" fill="#684d38"></path></g><defs><mask id="SvgjsMask1089"><rect width="1991" height="200" fill="#ffffff"></rect></mask></defs></svg>