<svg xmlns="http://www.w3.org/2000/svg" version="1.1" xmlns:xlink="http://www.w3.org/1999/xlink" xmlns:svgjs="http://svgjs.dev/svgjs" width="770" height="1000" preserveAspectRatio="none" viewBox="0 0 770 1000"><g mask="url(&quot;#SvgjsMask1476&quot;)" fill="none"><rect width="770" height="1000" x="0" y="0" fill="rgba(87, 64, 47, 1)"></rect><path d="M0,356.505C67.429,354.156,127.862,323.349,187.371,291.556C251.671,257.203,318.317,224.271,359.764,164.299C405.714,97.811,433.515,18.723,431.77,-62.079C429.9,-148.652,399.748,-232.346,349.67,-302.99C296.263,-378.33,226.389,-443.718,139.351,-474.586C49.789,-506.349,-49.952,-507.132,-139.953,-476.635C-228.053,-446.782,-295.869,-379.396,-354.554,-307.223C-411.801,-236.818,-479.712,-158.344,-472.295,-67.906C-464.975,21.353,-370.799,73.034,-317.468,144.983C-276.776,199.881,-252.82,267.018,-195.952,304.908C-138.58,343.134,-68.898,358.905,0,356.505" fill="#453325"></path><path d="M770 1391.768C841.413 1406.163 914.644 1356.162 965.156 1303.6689999999999 1011.344 1255.669 999.215 1177.649 1031.894 1119.603 1069.182 1053.37 1164.319 1018.624 1168.365 942.724 1172.353 867.925 1104.712 808.762 1051.262 756.285 1000.948 706.887 940.312 670.1700000000001 872.198 651.944 805.199 634.017 731.539 625.226 668.355 653.828 607.898 681.196 581.992 749.4010000000001 541.229 801.769 502.926 850.9780000000001 445.293 890.314 436.251 952.014 427.204 1013.752 459.674 1073.876 493.687 1126.188 524.432 1173.474 578.943 1194.932 619.607 1234.017 673.069 1285.402 697.309 1377.116 770 1391.768" fill="#694d39"></path></g><defs><mask id="SvgjsMask1476"><rect width="770" height="1000" fill="#ffffff"></rect></mask></defs></svg>