<svg xmlns="http://www.w3.org/2000/svg" version="1.1" xmlns:xlink="http://www.w3.org/1999/xlink" xmlns:svgjs="http://svgjs.dev/svgjs" width="1991" height="700" preserveAspectRatio="none" viewBox="0 0 1991 700"><g mask="url(&quot;#SvgjsMask1040&quot;)" fill="none"><rect width="1991" height="700" x="0" y="0" fill="rgba(87, 64, 47, 1)"></rect><path d="M0,775.821C142.057,745.327,199.992,577.062,309.459,481.527C398.762,403.589,516.169,364.006,583.582,266.513C659.283,157.034,744.219,26.908,713.338,-102.563C682.451,-232.056,520.022,-274.483,430.947,-373.418C344.254,-469.708,323.871,-643.518,198.137,-674.794C71.466,-706.303,-27.597,-557.245,-152.241,-518.486C-273.943,-480.641,-435.567,-546.034,-520.762,-451.243C-605.702,-356.737,-520.472,-202.88,-547.494,-78.718C-577.645,59.82,-714.354,174.698,-687.277,313.869C-659.614,456.05,-528.721,554.845,-408.506,635.647C-286.556,717.616,-143.665,806.661,0,775.821" fill="#463326"></path><path d="M1991 1152.651C2074.246 1139.82 2145.123 1095.564 2217.115 1051.842 2290.995 1006.973 2381.868 973.514 2416.421 894.283 2450.875 815.278 2412.467 726.371 2395.945 641.778 2380.263 561.486 2377.39 473.411 2322.39 412.849 2267.784 352.722 2181.812 338.104 2102.8559999999998 319.053 2027.347 300.834 1950.565 286.963 1874.988 304.9 1796.855 323.444 1717.6190000000001 357.184 1669.94 421.8 1623.4470000000001 484.80899999999997 1644.231 571.783 1622.54 647.024 1596.1390000000001 738.6 1510.917 817.441 1528.896 911.0360000000001 1547.308 1006.885 1628.671 1083.987 1715.163 1129.21 1798.628 1172.85 1897.914 1166.999 1991 1152.651" fill="#684d38"></path></g><defs><mask id="SvgjsMask1040"><rect width="1991" height="700" fill="#ffffff"></rect></mask></defs></svg>