<svg xmlns="http://www.w3.org/2000/svg" version="1.1" xmlns:xlink="http://www.w3.org/1999/xlink" xmlns:svgjs="http://svgjs.dev/svgjs" width="1000" height="1500" preserveAspectRatio="none" viewBox="0 0 1000 1500"><g mask="url(&quot;#SvgjsMask1536&quot;)" fill="none"><rect width="1000" height="1500" x="0" y="0" fill="rgba(87, 64, 47, 1)"></rect><path d="M0,647.379C115.956,619.861,186.101,510.01,286.749,446.19C388.244,381.833,532.429,374.548,593.503,271.044C655.32,166.28,613.775,34.557,601.02,-86.414C587.764,-212.143,586.635,-342.596,517.634,-448.532C443.534,-562.298,333.057,-652.686,204.242,-695.583C73.063,-739.267,-82.463,-757.552,-202.074,-688.202C-318.344,-620.789,-317.389,-452.526,-399.062,-345.789C-473.45,-248.572,-614.01,-209.203,-656.453,-94.384C-701.814,28.328,-680.375,167.197,-633.894,289.49C-585.517,416.772,-508.528,539.837,-389.955,606.782C-273.8,672.362,-129.784,678.179,0,647.379" fill="#423124"></path><path d="M1000 1971.465C1113.342 1995.098 1235.365 2080.007 1336.329 2023.338 1436.202 1967.281 1430.0439999999999 1821.152 1463.145 1711.511 1491.74 1616.797 1542.35 1521.27 1516.759 1425.701 1491.9189999999999 1332.935 1399.1109999999999 1280.725 1329.952 1214.095 1267.377 1153.808 1206.747 1096.503 1130.956 1054.0059999999999 1036.29 1000.925 941.603 918.872 834.475 936.274 726.389 953.832 653.3589999999999 1055.0520000000001 587.2280000000001 1142.3310000000001 524.344 1225.324 480.70399999999995 1320.1399999999999 465.56100000000004 1423.159 450.384 1526.405 448.63599999999997 1637.641 501.166 1727.81 551.9970000000001 1815.062 652.422 1855.337 743.156 1899.656 824.685 1939.479 911.175 1952.944 1000 1971.465" fill="#6c4f3a"></path></g><defs><mask id="SvgjsMask1536"><rect width="1000" height="1500" fill="#ffffff"></rect></mask></defs></svg>