<svg xmlns="http://www.w3.org/2000/svg" version="1.1" xmlns:xlink="http://www.w3.org/1999/xlink" xmlns:svgjs="http://svgjs.dev/svgjs" width="500" height="100" preserveAspectRatio="none" viewBox="0 0 500 100"><g mask="url(&quot;#SvgjsMask1094&quot;)" fill="none"><rect width="500" height="100" x="0" y="0" fill="rgba(85, 61, 45, 1)"></rect><path d="M0,204.907C39.748,213.639,86.164,208.829,117.585,182.966C148.527,157.498,144.178,109.891,160.111,73.12C175.626,37.314,207.566,8.764,209.946,-30.186C212.555,-72.876,202.701,-119.072,173.782,-150.583C145.071,-181.868,100.052,-195.068,57.605,-196.184C19.883,-197.176,-11.074,-170.86,-45.912,-156.361C-76.377,-143.682,-109.008,-137.58,-134.257,-116.335C-162.508,-92.565,-190.189,-64.559,-197.927,-28.458C-205.852,8.514,-197.265,49.011,-176.466,80.589C-156.838,110.39,-117.663,117.144,-88.491,137.695C-57.584,159.469,-36.926,196.795,0,204.907" fill="#453125"></path><path d="M500 316.491C541.713 320.959 583.391 307.31100000000004 619.441 285.85400000000004 656.3050000000001 263.913 686.716 232.405 705.815 193.99200000000002 725.317 154.769 732.532 110.781 728.159 67.196 723.657 22.323999999999998 711.8779999999999-23.995000000000005 680.677-56.55699999999999 650.048-88.52099999999999 603.7090000000001-96.13300000000001 560.889-107.37 519.255-118.29599999999999 475.451-136.009 435.109-121 395.385-106.221 379.33-60.627999999999986 350.861-29.229000000000013 321.56399999999996 3.0829999999999984 272.32 23.206999999999994 265.322 66.25800000000001 258.323 109.312 291.99199999999996 147.65699999999998 316.211 183.934 337.279 215.49200000000002 365.169 239.718 395.944 261.914 428.367 285.299 460.251 312.233 500 316.491" fill="#654936"></path></g><defs><mask id="SvgjsMask1094"><rect width="500" height="100" fill="#ffffff"></rect></mask></defs></svg>