<svg xmlns="http://www.w3.org/2000/svg" viewBox="0 0 20 20" fill="#0b6c9d" xmlns:v="https://vecta.io/nano"><path d="M17.4 5.9h-.2C16.4 2.5 13.5 0 10 0S3.6 2.5 2.8 5.9h-.2c-.8 0-1.4.6-1.4 1.4V9c0 .8.6 1.4 1.4 1.4.2 0 .3 0 .5-.1.4 1.1 1.4 1.8 2.6 1.8a.65.65 0 0 0 .6-.6c-.1-.2-.3-.5-.6-.5-1 0-1.7-.7-1.7-1.7V7.5c.1-3.4 2.8-6.1 6-6.1 3.3 0 6 2.8 6 6.3V9c0 .8.6 1.4 1.4 1.4s1.4-.6 1.4-1.4V7.3c0-.8-.6-1.4-1.4-1.4zm-2.8 8H13c-.4 0-.7.2-.9.5L11 16.1c-.4.7-1.4.7-1.8 0l-1.1-1.7c-.2-.3-.6-.5-.9-.5H5.4a3.8 3.8 0 0 0-3.8 3.8v1.7c0 .3.2.6.6.6h15.6a.65.65 0 0 0 .6-.6v-1.7c-.1-2.1-1.7-3.8-3.8-3.8zM10 12.5c2.5 0 4.6-2.1 4.6-4.7S12.5 3 10 3 5.4 5.1 5.4 7.7s2 4.8 4.6 4.8z"/></svg>