<svg xmlns="http://www.w3.org/2000/svg" viewBox="0 0 267.9 80" xmlns:v="https://vecta.io/nano"><path d="M46.2 45.3c.4.8.4 1.7.2 2.7-.2 1.2-.8 2.2-1.6 2.9-.8.8-1.7 1.1-2.8 1.2s-2.3 0-3.8-.2l-2.5-.5c-.8-.2-1.4-.3-1.5-.5s-.3-.3-.3-.5.1-.8.2-1.9l1.4-7.4 4.5.8c2 .4 3.4.8 4.3 1.4 1 .5 1.6 1.1 1.9 2zm.3-15.8c-.8-.5-2.3-.8-4.5-1.3l-3.8-.7-1.6 8.4 3.8.7c2 .4 3.5.5 4.5.3s1.8-.5 2.4-1.1 1-1.3 1.1-2.2.1-1.7-.2-2.5c-.4-.6-.9-1.1-1.7-1.6zM80 40c0 22.1-17.9 40-40 40S0 62.1 0 40 17.9 0 40 0s40 17.9 40 40zM56.5 29.4c-.7-1.5-1.8-2.7-3.4-3.8-.6-.4-1.4-.8-2.2-1.1l1.1-6.1-5.9-1.1L45 23l-3.8-.7 1.1-5.6-5.9-1.1-1.1 5.7-8.9-1.7-.8 4.7 1.4.3c.9.2 1.5.4 1.8.6s.5.5.5.8c.1.3 0 1-.2 2l-3.6 19.2c-.2 1-.4 1.7-.5 1.9-.2.2-.5.5-.8.5-.4.2-1 .1-1.9-.1l-1.4-.2L20 54l8.9 1.7-.9 5.8 5.9 1.1 1.1-5.7 3.3.6a.9.9 0 0 1 .5.1l-1.1 5.7 5.9 1.1 1.1-6.2c1 0 1.9-.1 2.7-.2 2.2-.5 4-1.3 5.3-2.6 1.4-1.3 2.3-2.9 2.6-4.7.3-1.6.2-3-.3-4.4s-1.3-2.6-2.4-3.5c-.8-.7-2-1.4-3.5-2a11.08 11.08 0 0 0 4-1.3c1.1-.6 2-1.4 2.6-2.3.7-1 1.1-2 1.4-3.1.3-1.7 0-3.2-.6-4.7zM96 2.9L90 33c-.4 1.7-.7 3.6-.7 5.4 0 5.3 3.5 8.3 10.6 8.3 13.4 0 19.7-11.1 19.7-20.8 0-5.3-2.8-10.4-9-10.4-3.6 0-7 1.6-9.2 4.2h-.2l3.5-17H96v.2zm3.2 28.2c1.1-5.2 4.1-8.3 7.4-8.3 2.7 0 3.9 2.3 3.9 5.1 0 5.2-3.6 12.3-8.7 12.3-2 0-3.3-1.1-3.4-3.3-.1-1.3.2-2.3.3-3.3l.5-2.5zm31.6 15l5.6-29.8h-8.7L122 46.1h8.8zm2.4-33.5c2.8 0 5.2-1.8 5.2-5 0-2.6-1.9-4.3-4.4-4.3-2.7 0-5 2-5 5-.1 2.6 1.7 4.3 4.2 4.3zm12.9-2.6l-1.3 6.3H141l-1.2 6.6h3.8l-2.3 11.9c-.5 2.3-.6 3.9-.6 5.6 0 3.8 2.5 6.4 7.7 6.4 1.9 0 4.1-.2 5.2-.7l1.1-6.8c-.8.2-1.7.2-2.4.2-1.9 0-2.5-1.1-2.5-2.5 0-1.1.2-2.6.5-3.8l2-10.1h6.3l1.3-6.6h-6.4L155 8l-8.9 2zM181 38.4c-1.5.6-3.4 1.2-5.9 1.2-3.3 0-5.9-2.1-5.9-6.2 0-5.6 3.8-10.9 10.1-10.9 1.7 0 3 .3 4.1.7l2.1-6.7a17.34 17.34 0 0 0-6-1.1c-11.4 0-19.4 8.3-19.4 18.9 0 7.7 5.2 12.2 12.6 12.2 3.5 0 6.6-.6 8.5-1.5l-.2-6.6zm22.8-22.8c-10.6 0-17.7 8.5-17.7 18.8 0 7.4 5 12.3 12.6 12.3 10.4 0 17.8-8 17.8-18.9-.1-6.7-4.8-12.2-12.7-12.2zm-1.2 6.7c3.5 0 4.7 2.9 4.7 5.6 0 5.1-2.6 12.1-7.4 12.1-3.1 0-4.7-2.3-4.7-5.8-.2-4.6 2.3-11.9 7.4-11.9zm25.1 23.8l5.6-29.8h-8.8l-5.6 29.8h8.8zm2.5-33.5c2.8 0 5.2-1.8 5.2-5 0-2.6-1.8-4.3-4.4-4.3s-5 2-5 5c-.1 2.6 1.7 4.3 4.2 4.3zm13.7 33.5l2.5-13.2c1.2-6.5 4.6-10.2 7.4-10.2 2.2 0 2.9 1.5 2.9 3.5 0 1.1-.2 2.3-.3 3.4l-3.1 16.5h8.8l3.3-17.3c.2-1.4.5-3.8.5-5 0-5.1-2.8-8.1-7.6-8.1-4 0-7.7 1.7-10.5 5.6h-.2l.6-4.9h-7.7l-1.6 9.7-3.8 20.1h8.8v-.1h0zM100.4 71.4c-.2-.8-.2-2.1-.2-3.5v-5c0-3.4-1.5-6.2-6.3-6.2-2.6 0-4.6.7-5.6 1.3l.8 2.9c.9-.6 2.5-1.1 3.9-1.1 2.2 0 2.6 1.1 2.6 1.8v.2c-5-.1-8.3 1.7-8.3 5.5 0 2.3 1.7 4.4 4.6 4.4 1.7 0 3.2-.6 4.1-1.7h0l.2 1.4h4.2 0zm-4.5-5.2c0 .2 0 .5-.1.8-.3.9-1.2 1.7-2.3 1.7-1 0-1.7-.5-1.7-1.7 0-1.7 1.8-2.3 4.1-2.3v1.5h0zm18 1.5c-.7.2-1.5.5-2.6.5-2.2 0-3.9-1.4-3.9-4 0-2.3 1.5-4 3.8-4 1.2 0 2 .2 2.5.5l.7-3.3c-.9-.4-2.2-.5-3.4-.5-5.3 0-8.2 3.4-8.2 7.6 0 4.5 2.9 7.3 7.6 7.3 1.7 0 3.2-.3 4-.7l-.5-3.4zm12.9 0c-.7.2-1.5.5-2.6.5-2.2 0-3.9-1.4-3.9-4 0-2.3 1.5-4 3.8-4 1.1 0 2 .2 2.5.5l.7-3.3c-.9-.5-2.2-.6-3.4-.6-5.3 0-8.2 3.4-8.2 7.6 0 4.5 2.9 7.3 7.6 7.3 1.7 0 3.2-.3 4-.7l-.5-3.3zm15.2-2.1c.1-.3.2-1 .2-1.8 0-3.5-1.7-7.1-6.4-7.1-5 0-7.2 4-7.2 7.6 0 4.4 2.8 7.3 7.6 7.3 2 0 3.7-.3 5.2-.9l-.6-3c-1.2.4-2.4.6-3.9.6-2.1 0-3.9-.9-4.1-2.7h9.2 0zm-9.2-3c.2-1.2.9-2.9 2.8-2.9 2 0 2.5 1.8 2.5 2.9h-5.3zm12 14.5h4.4V70h.1c.7.9 2 1.7 3.7 1.7 3.2 0 6.5-2.4 6.5-7.7 0-4.6-2.8-7.3-5.9-7.3-2 0-3.7.8-4.7 2.3h0l-.2-2h-3.8c.1 1.3.2 2.9.2 4.8l-.3 15.3h0zm4.5-13.9c0-.2 0-.5.1-.8.3-1.3 1.4-2.3 2.6-2.3 2 0 3 1.7 3 4 0 2.4-1.1 4.1-3.1 4.1-1.3 0-2.3-.9-2.6-2.1-.1-.3-.1-.6-.1-1l.1-1.9h0zm13.6-9.2v3.1H161v3.2h1.9v5.8c0 2 .4 3.4 1.2 4.2.7.7 1.9 1.2 3.3 1.2 1.3 0 2.3-.2 2.9-.4v-3.4a4.44 4.44 0 0 1-1.3.2c-1.4 0-1.7-.8-1.7-2.5v-5.2h3.2V57h-3.2v-4.1l-4.4 1.1zm22.6 11.6c.1-.3.2-1 .2-1.8 0-3.5-1.7-7.1-6.4-7.1-5 0-7.2 4-7.2 7.6 0 4.4 2.8 7.3 7.6 7.3 2 0 3.7-.3 5.2-.9l-.6-3c-1.2.4-2.4.6-3.9.6-2.1 0-3.8-.9-4.1-2.7h9.2 0zm-9.3-3c.2-1.2.9-2.9 2.8-2.9 2 0 2.6 1.8 2.6 2.9h-5.4zm21.5-11.9v7.7h-.1c-.7-1-2-1.6-3.8-1.6-3.5 0-6.4 2.8-6.4 7.6 0 4.4 2.7 7.3 6.1 7.3 1.8 0 3.5-.8 4.4-2.4h.1l.2 2.1h4a45.99 45.99 0 0 1-.2-4.3V50.7h-4.3 0zm0 14.3c0 .4 0 .7-.2 1-.2 1.3-1.3 2.1-2.6 2.1-1.8 0-3-1.5-3-3.9 0-2.3 1.1-4.1 3.1-4.1 1.4 0 2.3 1 2.6 2.2 0 .2.1.5.1.8V65h0zm14 6.4h4.4v-8.5c0-.3 0-.7.2-1 .3-.8 1.1-1.6 2.3-1.6 1.7 0 2.3 1.3 2.3 3.2v7.8h4.4V63c0-4.3-2.2-6.2-5-6.2-.8 0-1.7.2-2.3.5-.7.4-1.3.8-1.7 1.4h-.1v-8h-4.4l-.1 20.7h0zm29.7-5.8c.1-.3.2-1 .2-1.8 0-3.5-1.7-7.1-6.3-7.1-5 0-7.2 4-7.2 7.6 0 4.4 2.8 7.3 7.6 7.3 2 0 3.7-.3 5.2-.9l-.6-3c-1.2.4-2.4.6-3.9.6-2.1 0-3.9-.9-4.1-2.7h9.1 0zm-9.2-3c.2-1.2.9-2.9 2.7-2.9 2 0 2.5 1.8 2.5 2.9h-5.2zm12 8.8h4.4v-7.2c0-.4.1-.7.1-1 .3-1.4 1.4-2.3 3-2.3a3.73 3.73 0 0 1 1.2.2V57c-.3-.1-.5-.1-1-.1-1.4 0-3.1.9-3.8 2.9h-.1l-.2-2.6H244c.1 1.2.1 2.6.1 4.7v9.5h.1zm23.5-5.8c.1-.3.2-1 .2-1.8 0-3.5-1.7-7.1-6.4-7.1-5 0-7.2 4-7.2 7.6 0 4.4 2.8 7.3 7.6 7.3 2 0 3.8-.3 5.2-.9l-.6-3c-1.2.4-2.4.6-3.9.6-2.1 0-3.9-.9-4.1-2.7h9.2 0zm-9.3-3c.2-1.2.9-2.9 2.8-2.9 2 0 2.5 1.8 2.5 2.9h-5.3z" fill="#e4eff2"/></svg>