<svg class="svg-icon" style="width: 1em;height: 1em;vertical-align: middle;fill: currentColor;overflow: hidden;" viewBox="0 0 1024 1024" version="1.1" xmlns="http://www.w3.org/2000/svg"><path d="M822.256716 514.547264c-5.767005 0-13.464836-1.925731-19.23184-1.925732V398.921871c0-159.942687-128.855881-289.058388-288.477612-289.058388-159.626826 0-288.477612 129.115701-288.477612 289.063482v113.694567c-5.7721 0-13.459741 1.925731-19.231841 1.925732-42.31005 0-76.927363-34.688637-76.927363-77.080199 0-36.614368 24.998846-67.451542 59.621253-75.159563C208.758448 198.508259 347.227701 71.323383 514.547264 71.323383c167.319562 0 305.788816 127.184876 325.020656 290.984119C874.180139 370.015522 899.18408 400.852697 899.18408 437.467065c0 42.391562-34.617313 77.080199-76.927364 77.080199z m-307.709452 134.892895c-138.469254 0-250.01393-111.768836-250.013931-250.518288 0-138.744358 111.544677-250.518289 250.013931-250.518289 138.469254 0 250.01393 111.77393 250.01393 250.518289 0 138.749453-111.544677 250.518289-250.01393 250.518288zM310.689751 603.19204c51.928517 52.030408 123.083781 84.788219 203.857513 84.788219 78.853095 0 150.008358-30.83208 201.936875-82.862488 57.690428 44.322388 103.846846 104.060816 126.925055 177.289552 15.385473 44.322388 21.157572 80.936756 17.311204 123.333413-1.920637 28.906348-28.845214 52.030408-57.695522 52.030408H226.069652c-28.845214 0-55.774886-23.129154-57.695523-52.030408v-25.049791c0-113.699662 55.774886-215.834746 142.315622-277.498905z" fill="#333333" /></svg>