<svg xmlns="http://www.w3.org/2000/svg" viewBox="0 0 27.7 28" fill="#e4eff2" xmlns:v="https://vecta.io/nano"><path d="M13.9.2C6.3.2.1 6.4.1 14s6.2 13.7 13.7 13.7S27.6 21.5 27.6 14 21.4.2 13.9.2zm0 .4c5.7 0 10.7 3.7 12.5 8.8h-1.9c-1 0-1.5-.4-1.8-.9-1.9-3-5.3-4.9-8.8-4.9S7 5.5 5.1 8.5c-.4.5-.8.9-1.9.9H1.3C3.2 4.3 8.1.6 13.9.6zm0 26.7C6.8 27.3 1 21.8.6 14.8H2c1 0 1.5.3 1.7 1.1.9 4.9 5.2 8.4 10.2 8.4s9.2-3.5 10.2-8.4c.2-.8.7-1.1 1.7-1.1h1.5c-.6 7-6.4 12.5-13.4 12.5zm11.8-12.9c-1.2 0-1.9.5-2.1 1.4a9.97 9.97 0 0 1-9.8 8.1 9.77 9.77 0 0 1-9.7-8c-.2-1-.9-1.4-2.1-1.4H.5V14c0-1.5.2-2.9.7-4.2h2c1.3 0 1.8-.6 2.2-1.1C7.2 5.8 10.5 4 13.9 4s6.6 1.8 8.5 4.7c.3.5.9 1.1 2.2 1.1h2c.4 1.3.7 2.7.7 4.2v.5h-1.6zM12.4 9.8h-1V8.3h.9v-.6h-.9V6.2h1v-.5h-1.6v4.7h1.6z"/><path d="M13.5 10.4h.4c.5 0 .8-.3.8-.8v-1c0-.2 0-.3-.1-.3 0-.1-.1-.1-.1-.2-.1 0-.2-.1-.3-.2l-.6-.3c-.1 0-.1-.1-.2-.1 0 0-.1-.1-.1-.2v-.8c0-.2.1-.3.3-.3h.1c.3 0 .3.1.3.3v.4h.6v-.4c0-.5-.3-.8-.8-.8h-.4c-.5 0-.8.3-.8.8v1 .3c0 .1.1.1.1.2.3 0 .4 0 .5.1l.6.3c.1.1.1.1.2.1 0 0 .1.1.1.2v.8c0 .2-.1.3-.3.3h-.1c-.2 0-.3-.1-.3-.3v-.2h-.6v.2c0 .6.2.9.7.9z"/><path d="M15.6 10.4h.6V6.2h.6v-.5H15v.5h.6zm1-.8h.7v.8h-.7zm-7.8 1.5h-.5c-.7 0-1.1.4-1.1 1.2v.7h.9v-.7c0-.3.1-.4.4-.4h.1c.3 0 .4.1.4.4v1.3.2.1c0 .1-.1.1-.1.1 0 .1-.1.1-.2.2l-1 .8-.3.3c-.1.1-.1.1-.1.2v.3 2.1h2.4v-.8H8.3v-1-.2-.1c0-.1.1-.1.2-.2l1-1c.1-.1.2-.3.3-.3 0-.1.1-.2.1-.3v-1.7c-.1-.8-.4-1.2-1.1-1.2zm3 6.8h.6c.7 0 1.1-.4 1.1-1.2v-4.5c0-.8-.4-1.2-1.1-1.2h-.6c-.7 0-1.1.4-1.1 1.2v4.5c.1.8.4 1.2 1.1 1.2zm-.1-5.6c0-.3.1-.4.4-.4h.2c.3 0 .4.1.4.4v4.4c0 .3-.1.4-.4.4h-.2c-.3 0-.4-.1-.4-.4v-4.4h0zm4.4-1.2h-.6c-.7 0-1.1.4-1.1 1.2v4.5c0 .8.4 1.2 1.1 1.2h.6c.7 0 1.1-.4 1.1-1.2v-4.5c0-.8-.3-1.2-1.1-1.2zm.2 5.6c0 .3-.1.4-.4.4h-.2c-.3 0-.4-.1-.4-.4v-4.4c0-.3.1-.4.4-.4h.2c.3 0 .4.1.4.4v4.4zm3.5-2.7h-.3l-.5.4v-2.1c0-.3.1-.4.4-.4h.2c.3 0 .4.2.4.5v.6h.9v-.8c0-.8-.3-1.2-1-1.2h-.7c-.7 0-1 .4-1 1.2v4.5c0 .8.3 1.1 1 1.1h.7c.7 0 1-.4 1-1.1v-1.6c0-.7-.4-1.1-1.1-1.1zm.2 2.7c0 .3-.1.4-.4.4h-.2c-.3 0-.4-.1-.4-.4v-1.8h.6c.3 0 .4.2.4.5v1.3zm-3.2 2.6l-.5.2-.5-.2.1.5-.4.4.5.1.3.5.2-.5.6-.1-.4-.4zm-4.8 0l-.6.2-.5-.2.1.5-.4.4.6.1.2.5.3-.5.6-.1-.4-.4zm2.9.3l-1 .5-1-.5.2 1.1-.8.8 1.1.1.5 1 .5-1 1.1-.1-.8-.8z"/></svg>