<?xml version="1.0" encoding="UTF-8"?>
<svg id="Layer_1" data-name="Layer 1" xmlns="http://www.w3.org/2000/svg" viewBox="0 0 28.4 28.5">
  <defs>
    <style>
      .cls-1 {
        fill: #e4eff2;
      }
    </style>
  </defs>
  <path class="cls-1" d="m14.2,28.5C6.4,28.5,0,22.1,0,14.2S6.4,0,14.2,0s14.2,6.4,14.2,14.2-6.3,14.3-14.2,14.3ZM14.2.7c-7.4,0-13.5,6.1-13.5,13.5s6.1,13.5,13.5,13.5,13.5-6.1,13.5-13.5S21.7.7,14.2.7Z"/>
  <g>
    <path class="cls-1" d="m5.61,17.59v-1.3l1.81-1.86c.34-.35.64-.66.89-.93.25-.27.44-.52.57-.76.13-.24.2-.5.2-.77,0-.4-.11-.67-.34-.81s-.58-.21-1.08-.21c-.2,0-.42.01-.66.04-.24.02-.47.05-.69.08-.22.03-.41.06-.57.1l-.08-1.27c.18-.05.39-.1.65-.16.26-.06.54-.11.85-.15.31-.04.61-.07.91-.07.86,0,1.52.18,1.98.55.46.36.68.93.68,1.69,0,.42-.06.78-.17,1.1-.12.32-.3.63-.54.92-.24.29-.57.61-.97.95l-1.58,1.51h3.37v1.34h-5.23Z"/>
    <path class="cls-1" d="m14.67,17.59v-6.14l-1.87,1.08-.55-1.19,2.63-1.67h1.43v7.92h-1.63Z"/>
    <path class="cls-1" d="m20.3,17.33v-2.1h-2.04v-1.36h2.04v-2.06h1.36v2.06h2.05v1.36h-2.05v2.1h-1.36Z"/>
  </g>
</svg>