<svg xmlns="http://www.w3.org/2000/svg" viewBox="0 0 81 28" fill="#e4eff2" xmlns:v="https://vecta.io/nano"><path d="M11.2 28c-.7 0-1.5-.3-2-.8l-8.1-7.4C.4 19.2 0 18.3 0 17.4v-13c0-1.6 1.1-2.9 2.6-3.2L10.8 0h.9l8.1 1.2c1.5.2 2.6 1.6 2.6 3.2v13c0 .9-.4 1.8-1.1 2.4l-8.1 7.4c-.5.5-1.3.8-2 .8zm0-27.4h-.3L2.7 1.8C1.5 2 .6 3.1.6 4.4v13c0 .7.3 1.4.8 1.9l8.1 7.4c.9.8 2.3.8 3.2 0l8.1-7.4c.5-.5.8-1.2.8-1.9v-13c0-1.3-.9-2.4-2.1-2.5L11.4.7c0-.1-.1-.1-.2-.1z"/><path d="M17.1 10.6h-.2a.68.68 0 0 1 .7.7v-.2a.47.47 0 0 0-.5-.5zm.5 4.5h0v.6-.6zm-2.8 5.3c-1 .7-2.3 1.1-3.6 1.1 1.3 0 2.6-.4 3.6-1.1z" opacity=".1" enable-background="new"/><path d="M16.9 10.6h0l-.1-1.3v-.4-.3-.3-.2c0-.1 0-.2-.1-.3 0-.1 0-.2-.1-.3 0-.1-.1-.1-.1-.2s-.1-.2-.1-.3c0 0 0-.1-.1-.1-.1-.1-.1-.3-.2-.4a4.28 4.28 0 0 0-1.4-1.6c-.1-.1-.3-.2-.4-.3a.76.76 0 0 0-.4-.2s-.1 0-.1-.1c-.1-.2-.2-.3-.3-.3 0 0-.1 0-.1-.1-.1 0-.2-.1-.3-.1s-.1 0-.2-.1c-.1 0-.2-.1-.3-.1h-.2c-.1 0-.2 0-.3-.1h-.2-.3-.3-.3-.3-.3c-.1 0-.2 0-.3.1-.1 0-.2 0-.3.1-.1 0-.2.1-.3.1s-.2.1-.2.1c-.3 0-.3.1-.4.1s-.2.1-.3.1-.2.1-.3.1-.1.1-.2.1c-.1.1-.1.2-.2.3-.1 0-.2.1-.2.1-.1.1-.2.1-.2.2-.1.1-.2.1-.2.2-.1 0-.2.1-.2.2-.1 0-.2.1-.2.2-.1 0-.2.1-.2.2-.1.1-.1.2-.2.2 0 .1-.1.2-.1.3s-.1.1-.1.2-.1.2-.1.3c-.2.1-.2.1-.2.2s-.1.2-.1.3 0 .1-.1.2c0 .1-.1.2-.1.3s0 .1-.1.2c0 .1 0 .3-.1.4v.2.6 1.5h0a.68.68 0 0 0-.7.7v3.9c0 3.5 2.9 6.4 6.4 6.4h0c1.4 0 2.6-.4 3.6-1.1.1-.1.3-.2.4-.3.3-.3.6-.5.9-.9.1-.2.3-.3.4-.5.2-.3.4-.7.6-1.1.1-.2.2-.4.2-.6l.3-1.3v-.6-3.9a.68.68 0 0 0-.7-.7zM7.5 9.1C7.5 8 8 7 8.8 6.3c.6-.5 1.5-.8 2.4-.8h0 0c.8 0 1.5.2 2.1.6.1.1.2.1.3.2.2.1.3.3.5.5l.6.9c.1.2.2.5.2.7s.1.5.1.7v1.5h-3.7-3.8V9.1zm3.1 9.1l-3-2.8 1.3-1.2 1.7 1.6 3.5-3.3 1.3 1.2-4.8 4.5zm22.3-7.8c-.3-.1-.6-.3-.9-.4-.3-.2-.5-.3-.7-.5s-.3-.5-.4-.8-.2-.6-.2-1.1.1-.9.3-1.3.4-.7.7-.9c.3-.3.7-.4 1.1-.6.4-.1.9-.2 1.5-.2.5 0 1 0 1.4.1s.9.2 1.4.4c-.1.6-.2 1.1-.5 1.7-.1-.1-.3-.1-.4-.2-.2-.1-.3-.1-.5-.1s-.4-.1-.6-.1h-.7-.5c-.2 0-.3.1-.5.2l-.3.3c-.1.1-.1.3-.1.5s0 .4.1.5l.3.3c.1.1.2.2.4.2.1.1.3.1.4.2l.9.4c.4.1.7.3 1 .4.3.2.6.3.8.6.2.2.4.5.5.8a3.73 3.73 0 0 1 .2 1.2c0 .5-.1.9-.3 1.4-.2.4-.4.8-.8 1.1-.3.3-.8.5-1.3.7s-1.1.2-1.7.2h-.9c-.3 0-.5-.1-.7-.1s-.5-.1-.7-.2-.5-.1-.7-.2c0-.3.1-.6.2-.9l.3-.9c.4.2.8.3 1.2.4s.7.1 1.2.1c.6 0 1.1-.1 1.5-.3.3-.2.5-.6.5-1.1 0-.2 0-.4-.1-.6-.1-.1-.2-.3-.3-.4s-.3-.2-.4-.3-.3-.1-.5-.2l-1.2-.3zm6.2-5.7h6c.1.3.1.6.1.9s0 .6-.1.9h-3.8v2.3h3.1c.1.3.1.6.1.9s0 .6-.1.9h-3.1v2.8h3.9c.1.3.1.6.1.9s0 .6-.1.9h-6.1V4.7zm14.7 8.6l.3.8c.1.3.1.6.2.9-.5.2-1 .3-1.4.4s-.8.1-1.3.1c-.8 0-1.6-.1-2.2-.4s-1.2-.6-1.6-1.1-.7-1.1-.9-1.7c-.2-.7-.3-1.4-.3-2.2s.1-1.5.3-2.2.5-1.3 1-1.7c.4-.5.9-.9 1.6-1.1.6-.3 1.3-.4 2.1-.4.5 0 .9 0 1.3.1s.8.2 1.3.4c0 .3-.1.6-.2.8l-.3.8c-.3-.1-.6-.2-.9-.2s-.6-.1-.9-.1c-.9 0-1.7.3-2.2.9s-.7 1.5-.7 2.7c0 2.4 1 3.6 3 3.6.4 0 .7 0 .9-.1s.5-.2.9-.3zm2-8.6c.2 0 .4 0 .5-.1h.5.5c.2 0 .4 0 .5.1v5.5c0 .6 0 1.1.1 1.5 0 .4.1.8.3 1.1.1.3.3.5.5.6s.5.2.9.2.7-.1.9-.2.4-.3.5-.6a8.11 8.11 0 0 0 .3-1.1c0-.4.1-.9.1-1.5V4.7c.2 0 .4 0 .5-.1h.5.5c.2 0 .4 0 .5.1v5.9c0 .7-.1 1.4-.2 2s-.3 1.1-.6 1.5-.7.7-1.2 1c-.5.2-1.2.3-1.9.3s-1.4-.1-1.9-.3-.9-.5-1.2-1c-.3-.4-.5-.9-.6-1.5s-.2-1.2-.2-2l.2-5.9h0zm10 0c.4 0 .8-.1 1.2-.1s.8-.1 1.3-.1 1.1 0 1.6.1 1 .3 1.4.5a2.41 2.41 0 0 1 1 1c.3.4.4 1 .4 1.6 0 .4 0 .7-.1 1s-.2.6-.4.8c-.1.2-.3.4-.5.6s-.3.3-.5.4l-.3.2 2.6 4.4c-.2 0-.4 0-.6.1h-.7c-.4 0-.7 0-1.1-.1l-2.7-4.9.3-.2c.1-.1.3-.2.5-.3s.4-.2.6-.4.3-.4.5-.6c.1-.2.2-.5.2-.8 0-.6-.2-1.1-.5-1.4s-.8-.4-1.4-.4H68V15c-.2 0-.3 0-.5.1H67h-.5c-.2 0-.4 0-.6-.1l-.1-10.3h0zm8.8 0h6c.1.3.1.6.1.9s0 .6-.1.9h-3.8v2.3h3.1c.1.3.1.6.1.9s0 .6-.1.9h-3.1v2.8h3.9c.1.3.1.6.1.9s0 .6-.1.9h-6.1c0 .1 0-10.5 0-10.5zm-43.1 17c-.2-.1-.3-.1-.4-.2s-.2-.1-.3-.2-.1-.2-.2-.3c0-.1-.1-.3-.1-.5s0-.4.1-.6.2-.3.3-.4.3-.2.5-.3.4-.1.7-.1c.2 0 .4 0 .6.1.2 0 .4.1.6.2 0 .3-.1.5-.2.8-.1 0-.1-.1-.2-.1s-.1 0-.2-.1-.2-.1-.3-.1h-.3-.2c-.1 0-.1 0-.2.1-.1 0-.1.1-.2.2 0 .1-.1.2-.1.3v.2c0 .1.1.1.1.2.1 0 .1.1.2.1s.1.1.2.1l.4.2c.2.1.3.1.5.2.1.1.3.2.3.3.1.1.2.2.2.4.1.1.1.3.1.5s0 .4-.1.6-.2.3-.4.5-.3.2-.6.3c0-.1-.2-.1-.5-.1h-.4-.3c-.1 0-.2 0-.3-.1-.1 0-.2-.1-.3-.1 0-.1 0-.3.1-.4s.1-.3.1-.4c.2.1.4.1.5.2.2 0 .3.1.5.1.3 0 .5-.1.7-.2s.2-.3.2-.5c0-.1 0-.2-.1-.3 0-.1-.1-.1-.1-.2-.1 0-.1-.1-.2-.1s-.2-.1-.2-.1l-.5-.2zm3.5 0c-.1-.1-.3-.1-.4-.2s-.2-.1-.3-.2-.1-.2-.2-.3c0-.1-.1-.3-.1-.5s0-.4.1-.6.2-.3.3-.4.3-.2.5-.3.4-.1.7-.1c.2 0 .4 0 .6.1.2 0 .4.1.6.2 0 .3-.1.5-.2.8-.1 0-.1-.1-.2-.1s-.1 0-.2-.1h-.3-.3-.2c-.1 0-.1 0-.2.1-.1 0-.1.1-.2.2 0 .1-.1.2-.1.3v.2c0 .1.1.1.1.2.1 0 .1.1.2.1s.1.1.2.1l.4.2c.2.1.3.1.5.2.1.1.3.2.3.3.1.1.2.2.2.4.1.1.1.3.1.5s0 .4-.1.6-.2.3-.4.5-.1 0-.4.1c-.2.1-.5.1-.8.1h-.4-.3c-.1-.1-.2-.1-.3-.1s-.2-.1-.3-.1c0-.1 0-.3.1-.4 0-.1.1-.3.1-.4.2.1.4.1.5.2.2 0 .3.1.5.1.3 0 .5-.1.7-.2s.2-.3.2-.5c0-.1 0-.2-.1-.3 0-.1-.1-.1-.1-.2-.1 0-.1-.1-.2-.1s-.2-.1-.2-.1l-.4-.3zm2.9-2.6h.5.5v4h1.7v.2.2.2.2H38c-.1.1-.1-4.8-.1-4.8zm4.7 0h2.7v.4.4h-1.8V21H45v.4.4h-1.4v1.3h1.8v.4.4h-2.8c0 .1 0-4.8 0-4.8zm3.6 0h.4.4l1.9 3.1v-3.1h.5.4V24h-.4-.4l-2-3.1V24h-.4-.4v-4.9h0zm7.6 3.9c.1.1.1.3.1.4s.1.3.1.4c-.2.1-.4.1-.6.2h-.6c-.4 0-.7-.1-1-.2s-.5-.3-.7-.5-.3-.5-.4-.8-.1-.6-.1-1 .1-.7.2-1 .2-.6.4-.8.4-.4.7-.5.6-.2 1-.2h.6c.2 0 .4.1.6.2 0 .1 0 .3-.1.4 0 .1-.1.3-.1.4-.2-.1-.3-.1-.4-.1h-.4c-.4 0-.7.1-1 .4-.2.3-.3.7-.3 1.2 0 1.1.5 1.6 1.4 1.6h.4c-.1 0 .1 0 .2-.1zm1-3.9c.2 0 .4 0 .5-.1h.6c.2 0 .5 0 .7.1s.4.1.6.2.3.3.5.5.2.4.2.7c0 .2 0 .3-.1.5a.76.76 0 0 1-.2.4c-.1.1-.1.2-.2.3s-.2.1-.2.2l-.1.1 1.2 2H58h-.3-.5L56 21.7l.2-.1c.1 0 .1-.1.2-.1s.2-.1.3-.2.2-.2.2-.3c.1-.1.1-.2.1-.4 0-.3-.1-.5-.2-.6-.2-.1-.4-.2-.6-.2h-.3V24h-.2-.2-.2-.3l-.2-4.9h0zm5 3.1l-1.5-3.1h.6.5l.9 2.2.9-2.2h.5.5l-1.5 3.1V24h-.3-.2-.2-.2v-1.8h0zm3-3.1h.6.6c.2 0 .4 0 .7.1.2 0 .4.1.6.2s.3.3.4.5.2.5.2.8-.1.6-.2.8-.3.4-.4.5l-.6.3c-.2 0-.4.1-.7.1h-.2-.1v1.5h-.2-.2-.2-.3v-4.8zm1 2.5h.1.2.3c.1 0 .2-.1.3-.1.1-.1.1-.2.2-.3 0-.1.1-.2.1-.4s0-.3-.1-.4-.1-.2-.2-.3-.2-.1-.3-.1h-.3-.1-.2v1.6h0zm3.9-1.6h-1.2v-.4-.4h3.4v.4.4h-1.2v4h-.2-.2-.2-.3c-.1 0-.1-4-.1-4zm2.8-.9h.5.5V24H71h-.5v-4.9h0zm3.9 4.9c-.4 0-.7-.1-.9-.2-.3-.1-.5-.3-.6-.5-.2-.2-.3-.5-.4-.8s-.1-.6-.1-1 0-.7.1-1 .2-.6.4-.8.4-.4.6-.5c.3-.1.6-.2.9-.2.4 0 .7.1.9.2.3.1.5.3.6.5.2.2.3.5.4.8s.1.6.1 1 0 .7-.1 1-.2.6-.4.8-.4.4-.6.5c-.2.2-.5.2-.9.2zm0-.8c.7 0 1-.5 1-1.7a4.44 4.44 0 0 0-.2-1.3c-.2-.3-.4-.4-.8-.4-.7 0-1.1.5-1.1 1.7.1 1.2.4 1.7 1.1 1.7zm2.9-4.1h.4.4l1.9 3.1v-3.1h.5.4V24h-.4-.4l-1.9-3.1V24h-.4-.4l-.1-4.9h0z"/></svg>